<svg width="200" height="200" viewBox="0 0 200 200" fill="none" xmlns="http://www.w3.org/2000/svg">
<g opacity="0.1">
<path d="M168.75 12.5H31.25C26.2772 12.5 21.5081 14.4754 17.9917 17.9917C14.4754 21.5081 12.5 26.2772 12.5 31.25L12.5 168.75C12.5 173.723 14.4754 178.492 17.9917 182.008C21.5081 185.525 26.2772 187.5 31.25 187.5H84.8633V128.004H60.2539V100H84.8633V78.6562C84.8633 54.3789 99.3164 40.9687 121.453 40.9687C132.055 40.9687 143.141 42.8594 143.141 42.8594V66.6875H130.926C118.891 66.6875 115.137 74.1562 115.137 81.8164V100H142.004L137.707 128.004H115.137V187.5H168.75C173.723 187.5 178.492 185.525 182.008 182.008C185.525 178.492 187.5 173.723 187.5 168.75V31.25C187.5 26.2772 185.525 21.5081 182.008 17.9917C178.492 14.4754 173.723 12.5 168.75 12.5Z" fill="black"/>
</g>
</svg>
