<svg width="24" height="24" viewBox="0 0 24 24" fill="none" xmlns="http://www.w3.org/2000/svg">
<path d="M13.5 21V13.5C13.5 13.3011 13.579 13.1103 13.7197 12.9697C13.8603 12.829 14.0511 12.75 14.25 12.75H17.25C17.4489 12.75 17.6397 12.829 17.7803 12.9697C17.921 13.1103 18 13.3011 18 13.5V21M13.5 21H2.35999M13.5 21H18M18 21H21.64M20.25 21V9.349C20.6486 9.11891 20.9889 8.80019 21.2446 8.41751C21.5003 8.03484 21.6645 7.59846 21.7245 7.14215C21.7846 6.68584 21.7388 6.22184 21.5908 5.78605C21.4428 5.35026 21.1965 4.95436 20.871 4.629L19.681 3.44C19.4 3.15862 19.0187 3.00035 18.621 3H5.37799C4.9803 3.00035 4.59903 3.15862 4.31799 3.44L3.12899 4.628C2.80423 4.95374 2.5586 5.3497 2.41106 5.78537C2.26351 6.22104 2.21799 6.68477 2.27799 7.14082C2.33799 7.59686 2.50191 8.03304 2.75713 8.41571C3.01234 8.79839 3.35202 9.11735 3.74999 9.348M3.74999 20.999V9.35C4.35001 9.69598 5.05124 9.82376 5.73473 9.71167C6.41823 9.59958 7.04191 9.25451 7.49999 8.735C7.78129 9.05445 8.12749 9.31022 8.51548 9.48525C8.90348 9.66028 9.32434 9.75054 9.74999 9.75C10.646 9.75 11.45 9.357 12 8.734C12.2812 9.05363 12.6274 9.30959 13.0154 9.48479C13.4034 9.66 13.8243 9.75041 14.25 9.75C15.146 9.75 15.95 9.357 16.5 8.734C16.9582 9.25335 17.5819 9.59822 18.2654 9.71013C18.9489 9.82204 19.6501 9.6941 20.25 9.348M6.74999 17.999H10.5C10.6989 17.999 10.8897 17.92 11.0303 17.7793C11.171 17.6387 11.25 17.4479 11.25 17.249V13.5C11.25 13.3011 11.171 13.1103 11.0303 12.9697C10.8897 12.829 10.6989 12.75 10.5 12.75H6.74999C6.55108 12.75 6.36031 12.829 6.21966 12.9697C6.07901 13.1103 5.99999 13.3011 5.99999 13.5V17.25C5.99999 17.665 6.33599 17.999 6.74999 17.999Z" stroke="#DC0E0E" stroke-width="1.5" stroke-linecap="round" stroke-linejoin="round"/>
</svg>
