<svg width="24" height="25" viewBox="0 0 24 25" fill="none" xmlns="http://www.w3.org/2000/svg">
<path d="M0.842619 24.0056C0.619415 24.0056 0.407337 23.9163 0.251094 23.76C0.0390505 23.548 -0.0501754 23.2355 0.027946 22.9453L1.43414 17.6889C0.496686 15.9479 0.00560326 13.9837 0.00560326 11.9972C0.00560326 5.37922 5.38482 0 12.0028 0C18.6208 0 24 5.37922 24 11.9972C24 18.6152 18.6208 23.9944 12.0028 23.9944C9.98278 23.9944 8.0075 23.4922 6.24419 22.5324L1.06583 23.9721C0.987713 23.9944 0.92074 24.0056 0.842619 24.0056ZM6.35576 20.8026C6.50084 20.8026 6.64594 20.8473 6.77986 20.9143C8.35345 21.8406 10.1613 22.3315 12.0028 22.3315C17.6945 22.3315 22.326 17.7001 22.326 12.0083C22.326 6.31669 17.6945 1.6852 12.0028 1.6852C6.31112 1.6852 1.67963 6.31669 1.67963 12.0083C1.67963 13.8275 2.15951 15.6019 3.06349 17.1644C3.17509 17.3541 3.20859 17.5885 3.15279 17.8005L2.03677 21.9744L6.14372 20.8361C6.21068 20.8137 6.2888 20.8026 6.35576 20.8026Z" fill="white"/>
<path d="M15.0608 18.4361C14.3689 18.4361 13.6547 18.2798 12.9069 17.9562C12.2038 17.6549 11.5007 17.2531 10.82 16.7509C10.1504 16.2598 9.49198 15.7018 8.88933 15.0992C8.28668 14.4854 7.72862 13.8381 7.23757 13.1685C6.73536 12.4654 6.33359 11.7734 6.04342 11.0927C5.73094 10.3561 5.57471 9.63068 5.57471 8.93875C5.57471 8.4477 5.66397 7.97897 5.83137 7.54373C6.00993 7.08616 6.30011 6.67322 6.67956 6.31609C7.39381 5.613 8.42059 5.35634 9.23529 5.74694C9.51429 5.86971 9.74866 6.07059 9.92726 6.33843L11.2217 8.15753C11.3557 8.33609 11.4562 8.52581 11.5343 8.71554C11.6236 8.93874 11.6794 9.16197 11.6794 9.37401C11.6794 9.66418 11.6012 9.95433 11.4449 10.211C11.3445 10.3784 11.1994 10.5793 11.0097 10.769L10.8646 10.9253C10.9316 11.0146 11.0097 11.1262 11.1325 11.2601C11.3668 11.5279 11.6235 11.8181 11.9025 12.0971C12.1815 12.3649 12.4605 12.6328 12.7395 12.8671C12.8734 12.9787 12.9852 13.068 13.0744 13.1238L13.2306 12.9676C13.4315 12.7667 13.6325 12.6105 13.8333 12.51C14.2016 12.2757 14.7707 12.2199 15.2729 12.4319C15.4515 12.4989 15.63 12.5993 15.8197 12.7332L17.6836 14.0501C17.9403 14.2287 18.1411 14.4742 18.275 14.7532C18.3866 15.0322 18.4313 15.2777 18.4313 15.5344C18.4313 15.8692 18.3531 16.1929 18.208 16.5054C18.0629 16.7955 17.8955 17.0522 17.6947 17.2866C17.3375 17.6772 16.9247 17.9674 16.4783 18.1571C16.0319 18.3468 15.5519 18.4361 15.0608 18.4361ZM8.42055 7.25355C8.35359 7.25355 8.13044 7.25355 7.85143 7.53255C7.63939 7.73344 7.49427 7.9455 7.39383 8.17987C7.29339 8.41423 7.24874 8.68208 7.24874 8.94992C7.24874 9.41865 7.36033 9.92085 7.58353 10.4565C7.8179 11.0146 8.1639 11.606 8.58798 12.1975C9.02323 12.789 9.51428 13.3805 10.0612 13.9274C10.608 14.4631 11.1883 14.9653 11.7909 15.4117C12.3712 15.8358 12.9628 16.1706 13.5543 16.4272C14.4025 16.7955 15.1836 16.8848 15.8197 16.617C16.0429 16.5277 16.2438 16.3714 16.4447 16.1706C16.5452 16.059 16.6234 15.9474 16.6903 15.8023C16.7238 15.7242 16.746 15.6349 16.746 15.5568C16.746 15.5344 16.746 15.501 16.7126 15.434L14.8488 14.1394C14.7707 14.0836 14.6926 14.039 14.6256 14.0166C14.581 14.039 14.5141 14.0724 14.3913 14.1952L13.9673 14.6193C13.6436 14.9429 13.1302 15.0322 12.7173 14.8871L12.5164 14.7979C12.2597 14.6639 11.9695 14.4631 11.6458 14.184C11.3333 13.9162 11.0321 13.6372 10.7085 13.3247C10.396 13.0011 10.117 12.6997 9.84914 12.3873C9.55892 12.0413 9.35804 11.7623 9.22412 11.5279L9.10138 11.2378C9.0679 11.1262 9.05669 11.0034 9.05669 10.8918C9.05669 10.5793 9.16834 10.3003 9.38038 10.0771L9.8045 9.64184C9.92726 9.51908 9.97191 9.45213 9.99423 9.40749C9.96075 9.32937 9.9161 9.2624 9.8603 9.18428L8.55447 7.34285L8.42055 7.25355Z" fill="white"/>
</svg>
