<svg width="200" height="200" viewBox="0 0 200 200" fill="none" xmlns="http://www.w3.org/2000/svg">
<g opacity="0.1">
<path d="M100.039 55.0781C75.1953 55.0781 55.1562 75.1172 55.1562 99.9609C55.1562 124.805 75.1953 144.844 100.039 144.844C124.883 144.844 144.922 124.805 144.922 99.9609C144.922 75.1172 124.883 55.0781 100.039 55.0781ZM100.039 129.141C83.9844 129.141 70.8594 116.055 70.8594 99.9609C70.8594 83.8672 83.9453 70.7812 100.039 70.7812C116.133 70.7812 129.219 83.8672 129.219 99.9609C129.219 116.055 116.094 129.141 100.039 129.141ZM157.227 53.2422C157.227 59.0625 152.539 63.7109 146.758 63.7109C140.938 63.7109 136.289 59.0234 136.289 53.2422C136.289 47.4609 140.977 42.7734 146.758 42.7734C152.539 42.7734 157.227 47.4609 157.227 53.2422ZM186.953 63.8672C186.289 49.8438 183.086 37.4219 172.812 27.1875C162.578 16.9531 150.156 13.75 136.133 13.0469C121.68 12.2266 78.3594 12.2266 63.9062 13.0469C49.9219 13.7109 37.5 16.9141 27.2266 27.1484C16.9531 37.3828 13.7891 49.8047 13.0859 63.8281C12.2656 78.2812 12.2656 121.602 13.0859 136.055C13.75 150.078 16.9531 162.5 27.2266 172.734C37.5 182.969 49.8828 186.172 63.9062 186.875C78.3594 187.695 121.68 187.695 136.133 186.875C150.156 186.211 162.578 183.008 172.812 172.734C183.047 162.5 186.25 150.078 186.953 136.055C187.773 121.602 187.773 78.3203 186.953 63.8672ZM168.281 151.562C165.234 159.219 159.336 165.117 151.641 168.203C140.117 172.773 112.773 171.719 100.039 171.719C87.3047 171.719 59.9219 172.734 48.4375 168.203C40.7812 165.156 34.8828 159.258 31.7969 151.562C27.2266 140.039 28.2813 112.695 28.2813 99.9609C28.2813 87.2266 27.2656 59.8438 31.7969 48.3594C34.8438 40.7031 40.7422 34.8047 48.4375 31.7187C59.9609 27.1484 87.3047 28.2031 100.039 28.2031C112.773 28.2031 140.156 27.1875 151.641 31.7187C159.297 34.7656 165.195 40.6641 168.281 48.3594C172.852 59.8828 171.797 87.2266 171.797 99.9609C171.797 112.695 172.852 140.078 168.281 151.562Z" fill="black"/>
</g>
</svg>
