<svg width="160" height="40" viewBox="0 0 160 40" fill="none" xmlns="http://www.w3.org/2000/svg">
<path d="M6.74397 0H10.9767L13.1721 15.8151L20.911 0H25.4913L13.9302 22.7988H10.345L6.74397 0ZM3.98005 0H8.54447L6.30174 17.7098L5.40149 22.7988H0L3.98005 0ZM23.4854 0H28.0814L24.1014 22.7988H18.6683L19.6475 17.2557L23.4854 0Z" fill="#DC0E0E"/>
<path d="M40.3849 5.0577L31.9194 22.7988H25.9335L38.1263 0H41.9484L40.3849 5.0577ZM41.8379 22.7988L39.5004 4.50965L39.6267 0H43.2277L47.4763 22.7988H41.8379ZM43.0698 14.2962L42.3117 18.5397H30.8296L31.5877 14.2962H43.0698Z" fill="#DC0E0E"/>
<path d="M66.65 9.05062L65.9077 13.2784H54.4256L55.1679 9.05062H66.65ZM58.5794 0L54.5835 22.7988H49.182L53.1621 0H58.5794ZM71.8462 0L67.8503 22.7988H62.4646L66.4447 0H71.8462Z" fill="#DC0E0E"/>
<path d="M84.1022 5.0577L75.6367 22.7988H69.6508L81.8437 0H85.6658L84.1022 5.0577ZM85.5552 22.7988L83.2177 4.50965L83.3441 0H86.9451L91.1936 22.7988H85.5552ZM86.7872 14.2962L86.0291 18.5397H74.5469L75.305 14.2962H86.7872Z" fill="#DC0E0E"/>
<path d="M105.819 0L101.839 22.7988H96.4214L100.417 0H105.819ZM112.531 0L111.789 4.24346H93.1047L93.8628 0H112.531Z" fill="#DC0E0E"/>
<path d="M117.554 0H121.786L123.982 15.8151L131.721 0H136.301L124.74 22.7988H121.155L117.554 0ZM114.79 0H119.354L117.111 17.7098L116.211 22.7988H110.81L114.79 0ZM134.295 0H138.891L134.911 22.7988H129.478L130.457 17.2557L134.295 0Z" fill="#DC0E0E"/>
<path d="M151.194 5.0577L142.729 22.7988H136.743L148.936 0H152.758L151.194 5.0577ZM152.647 22.7988L150.31 4.50965L150.436 0H154.037L158.286 22.7988H152.647ZM153.879 14.2962L153.121 18.5397H141.639L142.397 14.2962H153.879Z" fill="#DC0E0E"/>
<path d="M107.493 28.4359L105.503 39.8353H102.794L104.792 28.4359H107.493ZM110.849 28.4359L110.478 30.5576H101.136L101.515 28.4359H110.849Z" fill="#DC0E0E"/>
<path d="M120.239 33.8615L120.183 34.3235C120.078 35.0699 119.875 35.7875 119.575 36.4765C119.28 37.1603 118.891 37.7683 118.406 38.3007C117.927 38.8331 117.359 39.2533 116.701 39.5612C116.043 39.864 115.303 40.0075 114.482 39.9918C113.692 39.9762 113.018 39.8092 112.46 39.4908C111.907 39.1724 111.465 38.747 111.133 38.2146C110.807 37.6822 110.586 37.0846 110.47 36.4217C110.354 35.7588 110.338 35.0751 110.423 34.3704L110.478 33.9085C110.583 33.1673 110.786 32.4575 111.086 31.779C111.386 31.0952 111.778 30.4871 112.263 29.9547C112.747 29.4223 113.318 29.0074 113.976 28.7099C114.634 28.4072 115.371 28.2636 116.187 28.2793C116.972 28.2897 117.64 28.4541 118.193 28.7725C118.746 29.0909 119.186 29.5163 119.512 30.0487C119.844 30.5759 120.067 31.1709 120.183 31.8338C120.304 32.4914 120.323 33.1673 120.239 33.8615ZM117.435 34.3704L117.498 33.885C117.535 33.5771 117.559 33.23 117.569 32.8437C117.58 32.4575 117.546 32.0843 117.467 31.7242C117.388 31.3588 117.235 31.0561 117.009 30.816C116.788 30.5759 116.461 30.4454 116.029 30.4245C115.55 30.4036 115.145 30.5002 114.813 30.7142C114.482 30.923 114.208 31.2048 113.992 31.5597C113.781 31.9094 113.616 32.2905 113.495 32.7028C113.373 33.1151 113.287 33.5118 113.234 33.8929L113.171 34.3783C113.134 34.6862 113.108 35.0359 113.092 35.4274C113.081 35.8136 113.113 36.1894 113.187 36.5548C113.266 36.9202 113.418 37.2255 113.645 37.4708C113.871 37.7109 114.203 37.8388 114.64 37.8545C115.108 37.8753 115.508 37.7788 115.84 37.5648C116.172 37.3456 116.445 37.0585 116.661 36.7036C116.882 36.3486 117.053 35.965 117.175 35.5527C117.301 35.1403 117.388 34.7462 117.435 34.3704Z" fill="#DC0E0E"/>
<path d="M128.357 37.7214L127.985 39.8353H122.331L122.702 37.7214H128.357ZM125.3 28.4359L123.303 39.8353H120.602L122.592 28.4359H125.3Z" fill="#DC0E0E"/>
<path d="M132.889 39.8353H130.26L130.647 37.7214L132.976 37.737C133.634 37.737 134.177 37.5752 134.603 37.2516C135.035 36.928 135.369 36.5078 135.606 35.9911C135.848 35.4744 136.011 34.9289 136.096 34.3548L136.151 33.8694C136.198 33.5249 136.219 33.1647 136.214 32.7889C136.209 32.4079 136.153 32.053 136.048 31.7242C135.943 31.3953 135.764 31.1239 135.511 30.9099C135.264 30.6959 134.916 30.5811 134.469 30.5654L131.839 30.5576L132.21 28.4359L134.556 28.4437C135.324 28.4594 135.998 28.6159 136.577 28.9134C137.156 29.2057 137.633 29.605 138.007 30.1113C138.38 30.6124 138.644 31.1865 138.796 31.8338C138.949 32.481 138.983 33.1621 138.899 33.8772L138.844 34.3704C138.744 35.1325 138.528 35.8476 138.196 36.5157C137.864 37.1785 137.438 37.7605 136.917 38.2616C136.396 38.7574 135.793 39.1463 135.108 39.4281C134.429 39.7048 133.69 39.8405 132.889 39.8353ZM133.813 28.4359L131.815 39.8353H129.115L131.105 28.4359H133.813Z" fill="#DC0E0E"/>
<path d="M149.741 33.8615L149.686 34.3235C149.581 35.0699 149.378 35.7875 149.078 36.4765C148.783 37.1603 148.394 37.7683 147.909 38.3007C147.43 38.8331 146.862 39.2533 146.204 39.5612C145.546 39.864 144.806 40.0075 143.985 39.9918C143.195 39.9762 142.521 39.8092 141.963 39.4908C141.41 39.1724 140.968 38.747 140.636 38.2146C140.31 37.6822 140.089 37.0846 139.973 36.4217C139.857 35.7588 139.841 35.0751 139.926 34.3704L139.981 33.9085C140.086 33.1673 140.289 32.4575 140.589 31.779C140.889 31.0952 141.281 30.4871 141.766 29.9547C142.25 29.4223 142.821 29.0074 143.479 28.7099C144.137 28.4072 144.874 28.2636 145.69 28.2793C146.475 28.2897 147.143 28.4541 147.696 28.7725C148.249 29.0909 148.688 29.5163 149.015 30.0487C149.347 30.5759 149.57 31.1709 149.686 31.8338C149.807 32.4914 149.826 33.1673 149.741 33.8615ZM146.938 34.3704L147.001 33.885C147.038 33.5771 147.062 33.23 147.072 32.8437C147.083 32.4575 147.049 32.0843 146.97 31.7242C146.891 31.3588 146.738 31.0561 146.512 30.816C146.29 30.5759 145.964 30.4454 145.532 30.4245C145.053 30.4036 144.648 30.5002 144.316 30.7142C143.985 30.923 143.711 31.2048 143.495 31.5597C143.284 31.9094 143.119 32.2905 142.997 32.7028C142.876 33.1151 142.789 33.5118 142.737 33.8929L142.674 34.3783C142.637 34.6862 142.61 35.0359 142.595 35.4274C142.584 35.8136 142.616 36.1894 142.689 36.5548C142.768 36.9202 142.921 37.2255 143.147 37.4708C143.374 37.7109 143.706 37.8388 144.142 37.8545C144.611 37.8753 145.011 37.7788 145.343 37.5648C145.674 37.3456 145.948 37.0585 146.164 36.7036C146.385 36.3486 146.556 35.965 146.677 35.5527C146.804 35.1403 146.891 34.7462 146.938 34.3704Z" fill="#DC0E0E"/>
<path d="M156.391 36.7505C156.438 36.5052 156.42 36.2964 156.335 36.1242C156.256 35.9519 156.135 35.8058 155.972 35.6858C155.814 35.5657 155.633 35.4639 155.427 35.3804C155.227 35.2917 155.032 35.2108 154.843 35.1377C154.432 34.9759 154.027 34.7932 153.627 34.5897C153.227 34.3809 152.863 34.1356 152.537 33.8537C152.211 33.5719 151.955 33.243 151.771 32.8672C151.592 32.4914 151.516 32.0504 151.542 31.5441C151.579 30.9647 151.745 30.4662 152.039 30.0487C152.334 29.6311 152.711 29.2919 153.169 29.0309C153.632 28.7647 154.129 28.5716 154.661 28.4515C155.198 28.3263 155.722 28.2688 156.233 28.2793C156.959 28.2897 157.607 28.4359 158.175 28.7177C158.749 28.9996 159.199 29.4041 159.526 29.9313C159.852 30.4532 160.01 31.0848 160 31.8259H157.322C157.333 31.5336 157.293 31.2805 157.204 31.0665C157.12 30.8473 156.98 30.6776 156.785 30.5576C156.591 30.4323 156.338 30.3671 156.027 30.3619C155.769 30.3566 155.511 30.3984 155.253 30.4871C154.995 30.5706 154.772 30.7011 154.582 30.8786C154.393 31.0561 154.272 31.2857 154.219 31.5676C154.182 31.7816 154.216 31.9695 154.322 32.1313C154.427 32.2879 154.572 32.4236 154.756 32.5384C154.94 32.648 155.132 32.742 155.332 32.8202C155.538 32.8985 155.717 32.9664 155.869 33.0238C156.301 33.1856 156.714 33.3761 157.109 33.5953C157.509 33.8093 157.862 34.0625 158.167 34.3548C158.478 34.6471 158.715 34.989 158.878 35.3804C159.047 35.7667 159.115 36.2155 159.083 36.727C159.041 37.3169 158.883 37.8205 158.61 38.2381C158.336 38.6557 157.983 38.9949 157.551 39.2559C157.12 39.5169 156.646 39.7074 156.13 39.8274C155.614 39.9475 155.09 40.0049 154.559 39.9997C153.964 39.9892 153.408 39.9005 152.892 39.7335C152.376 39.5612 151.926 39.3133 151.542 38.9897C151.158 38.6609 150.86 38.259 150.65 37.784C150.439 37.3038 150.339 36.7531 150.349 36.132L153.058 36.1399C153.042 36.4321 153.061 36.6905 153.113 36.9149C153.171 37.1342 153.266 37.3195 153.398 37.4708C153.535 37.617 153.711 37.7292 153.927 37.8075C154.143 37.8806 154.403 37.9171 154.709 37.9171C154.967 37.9171 155.214 37.8779 155.451 37.7997C155.693 37.7161 155.898 37.5883 156.067 37.416C156.235 37.2438 156.343 37.0219 156.391 36.7505Z" fill="#DC0E0E"/>
</svg>
