<svg width="175" height="43" viewBox="0 0 175 43" fill="none" xmlns="http://www.w3.org/2000/svg">
<path d="M4.17046 0.727295H11.1364L14.6591 15.1364H14.9318L23.2273 0.727295H30.1932L26.3296 24H20.8523L23.2273 9.70457H23.0341L15.1023 23.8523H11.6136L8.38637 9.62502H8.19319L5.7841 24H0.306824L4.17046 0.727295Z" fill="#DC0E0E"/>
<path d="M34.8722 24H28.8267L40.5426 0.727295H48.0313L52.0199 24H45.9744L43.4176 6.59093H43.2358L34.8722 24ZM35.5994 14.8409H48.2358L47.5085 19.1137H34.8722L35.5994 14.8409Z" fill="#DC0E0E"/>
<path d="M54.5256 24L58.3892 0.727295H64.0142L62.4688 10.0682H71.6392L73.1847 0.727295H78.7983L74.9347 24H69.321L70.8665 14.6477H61.696L60.1506 24H54.5256Z" fill="#DC0E0E"/>
<path d="M83.4972 24H77.4517L89.1676 0.727295H96.6563L100.645 24H94.5994L92.0426 6.59093H91.8608L83.4972 24ZM84.2244 14.8409H96.8608L96.1335 19.1137H83.4972L84.2244 14.8409Z" fill="#DC0E0E"/>
<path d="M102.574 5.29548L103.347 0.727295H123.017L122.244 5.29548H115.188L112.097 24H106.551L109.642 5.29548H102.574Z" fill="#DC0E0E"/>
<path d="M125.764 0.727295H132.73L136.253 15.1364H136.526L144.821 0.727295H151.787L147.923 24H142.446L144.821 9.70457H144.628L136.696 23.8523H133.207L129.98 9.62502H129.787L127.378 24H121.901L125.764 0.727295Z" fill="#DC0E0E"/>
<path d="M156.466 24H150.42L162.136 0.727295H169.625L173.614 24H167.568L165.011 6.59093H164.83L156.466 24ZM157.193 14.8409H169.83L169.102 19.1137H156.466L157.193 14.8409Z" fill="#DC0E0E"/>
<path d="M70.7841 33.875C70.8144 33.447 70.7008 33.1156 70.4432 32.8807C70.1894 32.6459 69.7879 32.5284 69.2386 32.5284C68.875 32.5284 68.5644 32.5758 68.3068 32.6705C68.0492 32.7614 67.8466 32.8902 67.6989 33.0568C67.5511 33.2197 67.4583 33.4091 67.4205 33.625C67.3864 33.7955 67.3958 33.947 67.4489 34.0796C67.5019 34.2121 67.5947 34.3296 67.7273 34.4318C67.8636 34.5341 68.0322 34.6231 68.233 34.6989C68.4375 34.7746 68.6667 34.8409 68.9205 34.8978L69.875 35.125C70.428 35.25 70.9072 35.4167 71.3125 35.625C71.7216 35.8296 72.053 36.0777 72.3068 36.3693C72.5606 36.6572 72.7349 36.9887 72.8296 37.3637C72.9242 37.7387 72.9318 38.1591 72.8523 38.625C72.7311 39.3599 72.4413 39.9906 71.983 40.5171C71.5284 41.0436 70.9337 41.447 70.1989 41.7273C69.4678 42.0076 68.6174 42.1478 67.6477 42.1478C66.678 42.1478 65.8542 42.0019 65.1761 41.7103C64.5019 41.4148 64.0133 40.9697 63.7102 40.375C63.4072 39.7803 63.3258 39.0303 63.4659 38.125H66.1534C66.1117 38.5 66.1591 38.8125 66.2955 39.0625C66.4356 39.3125 66.6515 39.5019 66.9432 39.6307C67.2349 39.7595 67.5871 39.8239 68 39.8239C68.3788 39.8239 68.7102 39.7728 68.9943 39.6705C69.2822 39.5682 69.5114 39.4262 69.6818 39.2443C69.8561 39.0625 69.9621 38.8542 70 38.6193C70.0379 38.4034 70.0019 38.2159 69.8921 38.0568C69.786 37.8977 69.6042 37.7595 69.3466 37.6421C69.0928 37.5246 68.7595 37.4186 68.3466 37.3239L67.1818 37.0398C66.2197 36.8049 65.4905 36.4299 64.9943 35.9148C64.5019 35.3996 64.3277 34.7008 64.4716 33.8182C64.5928 33.0947 64.8921 32.4621 65.3693 31.9205C65.8504 31.3788 66.4583 30.9584 67.1932 30.6591C67.9318 30.3561 68.7443 30.2046 69.6307 30.2046C70.5322 30.2046 71.2898 30.358 71.9034 30.6648C72.5208 30.9678 72.9659 31.3959 73.2386 31.9489C73.5152 32.4981 73.5947 33.1402 73.4773 33.875H70.7841Z" fill="#DC0E0E"/>
<path d="M73.7159 42L75.6477 30.3637H83.7614L83.375 32.6478H78.0739L77.6875 35.0341H82.5739L82.1875 37.3239H77.3011L76.9148 39.7159H82.2159L81.8296 42H73.7159Z" fill="#DC0E0E"/>
<path d="M83.5909 42L85.5227 30.3637H90.3296C91.2008 30.3637 91.928 30.5209 92.5114 30.8353C93.0947 31.1459 93.5095 31.5928 93.7557 32.1762C94.0019 32.7557 94.0587 33.4432 93.9261 34.2387C93.7974 35.0417 93.5095 35.7254 93.0625 36.2898C92.6193 36.8504 92.0474 37.2784 91.3466 37.5739C90.6496 37.8693 89.858 38.0171 88.9716 38.0171H85.9318L86.3068 35.8012H88.8239C89.2443 35.8012 89.608 35.7462 89.9148 35.6364C90.2216 35.5228 90.4659 35.3523 90.6477 35.125C90.8333 34.894 90.9564 34.5985 91.0171 34.2387C91.0739 33.8788 91.0474 33.5815 90.9375 33.3466C90.8314 33.108 90.6439 32.9299 90.375 32.8125C90.1099 32.6913 89.7689 32.6307 89.3523 32.6307H87.9659L86.4034 42H83.5909ZM91.0227 36.6818L93.0398 42H89.9716L88.0171 36.6818H91.0227Z" fill="#DC0E0E"/>
<path d="M94.3097 42L96.2415 30.3637H101.048C101.92 30.3637 102.647 30.5209 103.23 30.8353C103.813 31.1459 104.228 31.5928 104.474 32.1762C104.721 32.7557 104.777 33.4432 104.645 34.2387C104.516 35.0417 104.228 35.7254 103.781 36.2898C103.338 36.8504 102.766 37.2784 102.065 37.5739C101.368 37.8693 100.577 38.0171 99.6903 38.0171H96.6506L97.0256 35.8012H99.5426C99.9631 35.8012 100.327 35.7462 100.634 35.6364C100.94 35.5228 101.185 35.3523 101.366 35.125C101.552 34.894 101.675 34.5985 101.736 34.2387C101.793 33.8788 101.766 33.5815 101.656 33.3466C101.55 33.108 101.363 32.9299 101.094 32.8125C100.829 32.6913 100.488 32.6307 100.071 32.6307H98.6847L97.1222 42H94.3097ZM101.741 36.6818L103.759 42H100.69L98.7358 36.6818H101.741Z" fill="#DC0E0E"/>
<path d="M107.545 42H104.523L110.381 30.3637H114.125L116.119 42H113.097L111.818 33.2955H111.727L107.545 42ZM107.909 37.4205H114.227L113.864 39.5568H107.545L107.909 37.4205Z" fill="#DC0E0E"/>
<path d="M117.372 42L119.304 30.3637H122.116L120.571 39.7159H125.412L125.026 42H117.372Z" fill="#DC0E0E"/>
<path d="M126.482 42L128.413 30.3637H131.226L130.453 35.0341H135.038L135.811 30.3637H138.618L136.686 42H133.879L134.652 37.3239H130.067L129.294 42H126.482Z" fill="#DC0E0E"/>
<path d="M138.45 42L140.382 30.3637H148.496L148.109 32.6478H142.808L142.422 35.0341H147.308L146.922 37.3239H142.036L141.649 39.7159H146.95L146.564 42H138.45Z" fill="#DC0E0E"/>
<path d="M148.325 42L150.257 30.3637H155.064C155.935 30.3637 156.662 30.5209 157.246 30.8353C157.829 31.1459 158.244 31.5928 158.49 32.1762C158.736 32.7557 158.793 33.4432 158.661 34.2387C158.532 35.0417 158.244 35.7254 157.797 36.2898C157.354 36.8504 156.782 37.2784 156.081 37.5739C155.384 37.8693 154.592 38.0171 153.706 38.0171H150.666L151.041 35.8012H153.558C153.979 35.8012 154.342 35.7462 154.649 35.6364C154.956 35.5228 155.2 35.3523 155.382 35.125C155.568 34.894 155.691 34.5985 155.751 34.2387C155.808 33.8788 155.782 33.5815 155.672 33.3466C155.566 33.108 155.378 32.9299 155.109 32.8125C154.844 32.6913 154.503 32.6307 154.087 32.6307H152.7L151.138 42H148.325ZM155.757 36.6818L157.774 42H154.706L152.751 36.6818H155.757Z" fill="#DC0E0E"/>
<path d="M163.788 30.3637L161.857 42H159.044L160.976 30.3637H163.788Z" fill="#DC0E0E"/>
<path d="M166.139 42H163.116L168.974 30.3637H172.719L174.713 42H171.69L170.412 33.2955H170.321L166.139 42ZM166.503 37.4205H172.821L172.457 39.5568H166.139L166.503 37.4205Z" fill="#DC0E0E"/>
</svg>
